<?xml version="1.0" encoding="utf-8"?>
<!-- Generator: Adobe Illustrator 18.0.0, SVG Export Plug-In . SVG Version: 6.00 Build 0)  -->
<!DOCTYPE svg PUBLIC "-//W3C//DTD SVG 1.1//EN" "http://www.w3.org/Graphics/SVG/1.1/DTD/svg11.dtd">
<svg version="1.1" id="Layer_1" xmlns="http://www.w3.org/2000/svg" xmlns:xlink="http://www.w3.org/1999/xlink" x="0px" y="0px"
	 width="431px" height="212px" viewBox="0 0 431 212" enable-background="new 0 0 431 212" xml:space="preserve">
<g>
	<g>
		<g>
			<g>
				<path fill="#009F4B" d="M127,84.3H96.7l15.9-32.9l2.6-5.4c0.3-0.8,0.6-1.7,0.8-2.6c0.8-2.8,1.2-5.7,1.2-8.7
					c0-17.9-14.5-32.3-32.3-32.3S52.6,16.8,52.6,34.7c0,3,0.4,5.9,1.2,8.7c0.2,0.9,0.5,1.7,0.8,2.6l2.6,5.4l15.9,32.9H42.9l-22.9,48
					h129.9L127,84.3z"/>
				<path fill="#29B273" d="M66.6,96.1c5.4,0.7,8.6,4.5,12.5,9.2c6.2,7.5,14,16.8,34.6,16.8c12.6,0,20.4-2.3,23-6.8l5.9,12.3h-76
					V96.1z"/>
				<path fill="#25A7DE" d="M129,99.2c-8,0-17-0.1-21.4-4.4c-1.5-1.5-2.4-3.5-2.6-5.9h19.1L129,99.2z"/>
				<path fill="#89C33F" d="M84.9,108.5l9.5-19.7h8.3c0.3,3.1,1.4,5.6,3.3,7.5c4.8,4.8,13.8,5.1,21.9,5.1c0.5,0,1.1,0,1.6,0l0.6,0
					l5.3,11c-0.1,0.4-0.2,0.8-0.4,1.2c-1.3,2.8-6,6.1-21.3,6.1c-19.6,0-26.6-8.5-32.8-16c-4-4.8-7.8-9.3-14.3-10.1v-5h8.8
					L84.9,108.5z"/>
				<path fill="#D4DC23" d="M45.8,88.9h18.5v4.8c-10,0.1-14.5,3.5-18.2,6.2c-2.4,1.8-4.4,3.3-7.4,3.7L45.8,88.9z"/>
				<path fill="#C1976B" d="M37.6,106c4.5-0.1,7.1-2.1,9.9-4.2c4.9-4,8-6.1,16.8-5.8l0,31.7h-37L37.6,106z"/>
				<circle fill="#F7EA31" cx="85" cy="32.5" r="8.9"/>
			</g>
			<g>
				<path fill="#3B2314" d="M32.7,74.8l-0.8-0.6c0,0-4.4,2.9-1.4,7.4"/>
				<g>
					<g>
						<path fill="#262261" d="M34.5,127.9L34.5,127.9c4.7,0.4,8.9-3.1,9.4-7.8l0.6-6.4l-17.1-1.6l-0.6,6.4
							C26.2,123.3,29.7,127.5,34.5,127.9z"/>
						<path fill="#F4901E" d="M8.4,143.2l-5.4,3c-1.2,0.7-1.6,2.2-1,3.4c0.7,1.2,2.2,1.6,3.4,1l5.4-3c1.2-0.7,1.6-2.2,1-3.4
							C11.1,143,9.6,142.6,8.4,143.2z"/>
						<g>
							<g>
								<path fill="#262261" d="M30.6,122.6c0,0-11.7,3.1-14.5,7.7c-3.1,5.1-5.3,14.6-5.3,14.6c0,2.5-3.3,2.1-3.6,0.7
									c0,0,1-12.3,2.6-18.8c1.7-7.3,17.6-12.6,17.6-12.6L30.6,122.6z"/>
							</g>
						</g>
						<path fill="#F4901E" d="M15.9,148.2l-5.4,3c-1.2,0.7-1.6,2.2-1,3.4c0.7,1.2,2.2,1.6,3.4,1l5.4-3c1.2-0.7,1.6-2.2,1-3.4
							C18.6,148,17,147.6,15.9,148.2z"/>
						<g>
							<g>
								<path fill="#262261" d="M38,127.6c0,0-11.7,3.1-14.5,7.7c-3.1,5.1-5.3,14.6-5.3,14.6c0,2.5-3.3,2.1-3.6,0.7
									c0,0,1-12.3,2.6-18.8c1.7-7.3,17.6-12.6,17.6-12.6L38,127.6z"/>
							</g>
						</g>
					</g>
					<path fill="#404041" d="M6.3,120.8l11.2-6.5c0.9-0.5,2-0.5,2.9,0l11.7,6.7c0.9,0.5,0.9,1.7,0,2.2l-10.7,6.2L6.3,120.8z"/>
					<g>
						<g>
							<circle fill="#FFA880" cx="15.3" cy="116.4" r="2.3"/>
							<path fill="#FFA880" d="M31.1,97.4c0,0-2.8,5.5-4.5,8.7c-1.8,3.3-9.7,11.2-9.7,11.2l-1.8-2.4c0,0,6-8.3,7.7-12.2
								c1.3-3.1,3.4-7.4,3.4-7.4L31.1,97.4z"/>
							<path fill="#1F3B97" d="M27.5,90.5l-4.1,9.6c-0.6,1.4,0.3,3.1,2,3.8c1.7,0.7,3.6,0.2,4.1-1.2l4.1-9.6
								C35.4,88.9,29.3,86.2,27.5,90.5z"/>
						</g>
						<path fill="#FFFFFF" d="M26.3,114.5c-0.3,3.4,4,5.9,9.1,6.3s9.3-2.4,9.6-5.1l0,0l1.2-18.4l0,0l0,0c0.3-5.2-3.6-9.6-8.8-9.9
							c-5.2-0.3-9.6,3.6-9.9,8.8l0,0l0,0L26.3,114.5z"/>
						
							<ellipse transform="matrix(0.9999 -1.051510e-02 1.051510e-02 0.9999 -0.9497 0.3911)" fill="#FFFFFF" cx="36.7" cy="90.5" rx="4.9" ry="2.6"/>
						<g>
							<path fill="#F29471" d="M39.5,83.7l0.1,6.2c0,0.9-1.2,1.6-2.7,1.6c-1.5,0-2.7-0.7-2.7-1.6l-0.1-6.2L39.5,83.7z"/>
							<path fill="#FFA880" d="M30.6,78.3c-0.7,3.5,1,9.3,4.5,10c3.5,0.7,7.4-3.8,8.2-7.3c0.7-3.5-1.5-7-5-7.7
								C34.8,72.6,31.3,74.8,30.6,78.3z"/>
							
								<ellipse transform="matrix(0.9694 0.2454 -0.2454 0.9694 21.2116 -7.6585)" fill="#C8CFE4" cx="41.3" cy="81.3" rx="1.1" ry="1.7"/>
							<path fill="#3B2314" d="M41.2,83.7c0.3,0.2,1,0,1.4-0.4c0.3-0.2,0.4-0.5,0.5-0.8c0.3-0.7,0.7-1.6,0.8-2
								c0.9-3.8-1.5-7.6-5.3-8.4c-3.5-0.8-7.1,1.5-8,4.1c-0.9,2.7,4.6,5.8,9.6,2.7c0,0,0.7,1.4,0.7,2.2S40.7,83.3,41.2,83.7z"/>
							<g>
								
									<ellipse transform="matrix(0.9668 0.2555 -0.2555 0.9668 22.2064 -7.7638)" fill="#FFA880" cx="41" cy="81.6" rx="1.1" ry="1.7"/>
							</g>
						</g>
						<g>
							<path fill="#FFA880" d="M26.8,124c-0.2,1.3-1.5,2.1-2.7,1.9c-1.3-0.2-4.3-0.5-4-1.7c0.2-1.3,3.6-3.1,4.9-2.9
								C26.2,121.5,27,122.7,26.8,124z"/>
							<path fill="#FFA880" d="M44.3,104.9c0,0-1.3,6.9-3.6,9.8c-2.3,2.9-15,10.2-15,10.2l-1-2.8c0,0,10.7-7.5,12.1-10.6
								c1.5-3.1,2.2-7.9,2.2-7.9L44.3,104.9z"/>
							<path fill="#1F3B97" d="M39.6,98.7l-2.5,10.1c-0.4,1.5,0.8,3,2.6,3.5c1.8,0.4,3.5-0.4,3.9-1.8l2.5-10.1
								C47.2,95.9,40.7,94.2,39.6,98.7z"/>
						</g>
					</g>
					<path fill="#6D6E70" d="M2.7,110.1l12.9,7.5l5.8,11.9l-15.1-8.7l-4.7-9.7C1.3,110.4,2,109.7,2.7,110.1z"/>
				</g>
				<path fill="#3B2314" d="M32,76.6c-0.4,0.5-1.9,2.3-1.2,5.3c0,0.2,0.3,0.2,0.3,0c0.3-0.9,1.1-2.6,3-3c0.1,0,0.2-0.2,0.1-0.3
					l-2-2.1C32.2,76.5,32.1,76.5,32,76.6z"/>
				
					<ellipse transform="matrix(0.9926 -0.1211 0.1211 0.9926 -9.7761 4.5227)" fill="#3B2314" cx="32.3" cy="82.7" rx="0.6" ry="0.8"/>
				<ellipse fill="#3B2314" cx="36.1" cy="82.8" rx="0.6" ry="0.9"/>
				<path fill="none" stroke="#3B2314" stroke-width="0.4154" stroke-linecap="round" stroke-miterlimit="10" d="M33,85.4
					c0,0,1.6,1.5,3.4,0"/>
			</g>
		</g>
		<path fill="#D4DC23" d="M115.4,174.4l1.5,1.1c0.6,0.4,0.7,1.3,0.3,1.8l-1.1,1.5c-0.4,0.6-0.3,1.4,0.3,1.8l0,0
			c0.6,0.4,1.4,0.3,1.8-0.3l1.1-1.5c0.4-0.6,1.3-0.7,1.8-0.3l1.5,1.1c0.6,0.4,1.4,0.3,1.8-0.3l0,0c0.4-0.6,0.3-1.4-0.3-1.8l-1.5-1.1
			c-0.6-0.4-0.7-1.3-0.3-1.8l1.1-1.5c0.4-0.6,0.3-1.4-0.3-1.8l0,0c-0.6-0.4-1.4-0.3-1.8,0.3l-1.1,1.5c-0.4,0.6-1.3,0.7-1.8,0.3
			l-1.5-1.1c-0.6-0.4-1.4-0.3-1.8,0.3l0,0C114.8,173.1,114.9,173.9,115.4,174.4z"/>
		<path fill="#D71C5C" d="M378.4,179.2l1.4-0.9c0.5-0.4,1.2-0.2,1.6,0.3l0.9,1.4c0.4,0.5,1.1,0.7,1.6,0.3l0,0
			c0.5-0.4,0.7-1.1,0.3-1.6l-0.9-1.4c-0.4-0.5-0.2-1.2,0.3-1.6l1.4-0.9c0.5-0.4,0.7-1.1,0.3-1.6l0,0c-0.4-0.5-1.1-0.7-1.6-0.3
			l-1.4,0.9c-0.5,0.4-1.2,0.2-1.6-0.3l-0.9-1.4c-0.4-0.5-1.1-0.7-1.6-0.3l0,0c-0.5,0.4-0.7,1.1-0.3,1.6l0.9,1.4
			c0.4,0.5,0.2,1.2-0.3,1.6l-1.4,0.9c-0.5,0.4-0.7,1.1-0.3,1.6l0,0C377.2,179.4,377.9,179.6,378.4,179.2z"/>
		<path fill="#37B14A" d="M412.5,156l2.2-1.5c0.9-0.6,2-0.4,2.6,0.5l1.5,2.2c0.6,0.9,1.7,1.1,2.6,0.5l0,0c0.9-0.6,1.1-1.7,0.5-2.6
			l-1.5-2.2c-0.6-0.9-0.4-2,0.5-2.6l2.2-1.5c0.9-0.6,1.1-1.7,0.5-2.6l0,0c-0.6-0.9-1.7-1.1-2.6-0.5l-2.2,1.5c-0.9,0.6-2,0.4-2.6-0.5
			l-1.5-2.2c-0.6-0.9-1.7-1.1-2.6-0.5l0,0c-0.9,0.6-1.1,1.7-0.5,2.6l1.5,2.2c0.6,0.9,0.4,2-0.5,2.6l-2.2,1.5
			c-0.9,0.6-1.1,1.7-0.5,2.6l0,0C410.5,156.3,411.6,156.6,412.5,156z"/>
		<path fill="#EE5A28" d="M24.6,192.3l2.9,2.2c1.1,0.8,1.3,2.4,0.5,3.5l-2.2,2.9c-0.8,1.1-0.6,2.7,0.5,3.5l0,0
			c1.1,0.8,2.7,0.6,3.5-0.5l2.2-2.9c0.8-1.1,2.4-1.3,3.5-0.5l2.9,2.2c1.1,0.8,2.7,0.6,3.5-0.5l0,0c0.8-1.1,0.6-2.7-0.5-3.5l-2.9-2.2
			c-1.1-0.8-1.3-2.4-0.5-3.5l2.2-2.9c0.8-1.1,0.6-2.7-0.5-3.5l0,0c-1.1-0.8-2.7-0.6-3.5,0.5l-2.2,2.9c-0.8,1.1-2.4,1.3-3.5,0.5
			l-2.9-2.2c-1.1-0.8-2.7-0.6-3.5,0.5l0,0C23.2,189.9,23.5,191.5,24.6,192.3z"/>
		<path fill="#37B14A" d="M68.1,155.3l0.6,2.2c0.2,0.8-0.3,1.7-1.1,1.9l-2.2,0.6c-0.8,0.2-1.3,1.1-1.1,1.9l0,0
			c0.2,0.8,1.1,1.3,1.9,1.1l2.2-0.6c0.8-0.2,1.7,0.3,1.9,1.1l0.6,2.2c0.2,0.8,1.1,1.3,1.9,1.1l0,0c0.8-0.2,1.3-1.1,1.1-1.9l-0.6-2.2
			c-0.2-0.8,0.3-1.7,1.1-1.9l2.2-0.6c0.8-0.2,1.3-1.1,1.1-1.9l0,0c-0.2-0.8-1.1-1.3-1.9-1.1l-2.2,0.6c-0.8,0.2-1.7-0.3-1.9-1.1
			l-0.6-2.2c-0.2-0.8-1.1-1.3-1.9-1.1l0,0C68.4,153.7,67.9,154.5,68.1,155.3z"/>
	</g>
</g>
</svg>
